<?xml version="1.0" encoding="UTF-8"?><svg id="Capa_1" xmlns="http://www.w3.org/2000/svg" viewBox="0 0 206.15 201"><defs><style>.cls-1,.cls-2{fill:#00ac00;}.cls-2{fill-rule:evenodd;}</style></defs><path class="cls-2" d="M20.55,71.95v.08c-.08,.37-.11,.64-.11,.82,0,1.15,.66,2.01,1.96,2.57,1.32,.56,3.35,.84,6.09,.84,2.09,0,3.72-.23,4.91-.69,1.19-.46,1.79-1.09,1.79-1.9,0-1.22-2.36-2.2-7.04-2.97-.55-.09-.96-.16-1.23-.2-.3-.06-.74-.13-1.32-.22-7.45-1.22-12.25-2.54-14.36-3.97-1.03-.7-1.82-1.52-2.35-2.47-.51-.95-.78-2.02-.78-3.2,0-2.92,1.71-5.13,5.13-6.66,3.42-1.52,8.43-2.28,15.03-2.28s11.34,.71,14.48,2.14c3.14,1.43,4.71,3.64,4.71,6.6v.34h-12.34v-.13c0-1.03-.62-1.79-1.87-2.31-1.25-.53-3.08-.8-5.49-.8-1.87,0-3.32,.18-4.32,.56-1.02,.37-1.53,.91-1.53,1.6,0,1.24,2.69,2.28,8.07,3.15,1.03,.16,1.85,.28,2.44,.37,3.83,.64,6.56,1.19,8.19,1.66,1.63,.46,3.03,1,4.21,1.63,1.31,.72,2.34,1.63,3.04,2.73,.71,1.1,1.07,2.29,1.07,3.6,0,3.01-1.87,5.31-5.59,6.93-3.73,1.62-9.1,2.43-16.1,2.43s-11.94-.78-15.03-2.33c-3.1-1.56-4.64-4.05-4.64-7.49v-.44h12.98Zm33.81,9.76v-29.55h35.18v6.37h-21.97v4.7h20.32v6.29s-20.32,0-20.32,0v5.73h22.8v6.45s-36.02,0-36.02,0Zm41.53,0v-29.55h16.72l17.9,19.83v-19.83h12.69v29.55h-17.34l-17.31-19.89v19.89s-12.65,0-12.65,0Zm81.44-11.78l-6.32-10.74-6.68,10.74h13.01Zm-20.13,11.78h-13.25l20.45-29.55h14.66l19.51,29.55h-14.71l-2.98-5.33h-20.49l-3.18,5.33Z"/><g><path class="cls-2" d="M39.11,185.89l-11.8-11.1,35.93-62.35c1.96-3.4-.49-7.65-4.42-7.65H0v-15.59H94.66l-55.55,96.69Z"/><path class="cls-2" d="M167.04,185.89l11.8-11.1-35.93-62.35c-1.96-3.4,.49-7.65,4.42-7.65h58.81v-15.59s-94.66,0-94.66,0l55.55,96.69Z"/></g><path class="cls-2" d="M102.36,105.68c.08-.15,.13-.22,.13-.22l53.34,88.17-14.17,7.37-34.37-57.56c-2.02-3.39-6.94-3.4-8.95,0-11.46,19.31-34.15,57.56-34.15,57.56l-13.87-6.86s49.18-83.62,52.03-88.46Z"/><circle class="cls-1" cx="103.07" cy="22" r="22"/></svg>