<?xml version="1.0" encoding="UTF-8"?><svg xmlns="http://www.w3.org/2000/svg" viewBox="0 0 340.74 304.88"><defs><style>.cls-1{fill:#3ecfcd;}.cls-2{fill:#d1ebff;}.cls-3,.cls-4,.cls-5,.cls-6{fill:#fff;}.cls-4{mix-blend-mode:screen;}.cls-7{fill:#72b5e8;}.cls-8{isolation:isolate;}.cls-9{fill:#001a46;}.cls-10{fill:#d62d69;}.cls-11{fill:#2672ab;}.cls-12{fill:#ffd70f;}.cls-5{opacity:.7;}.cls-13{fill:#f76195;}.cls-14{fill:#0fbab8;}.cls-15{fill:#0ba19f;}.cls-16{fill:#a8cff0;}.cls-17{fill:#084c94;}.cls-18{fill:#4f9fdb;}.cls-19{fill:#b08100;}.cls-20,.cls-6{mix-blend-mode:color-dodge;}.cls-21{fill:#eb4680;}.cls-22{fill:#d99f00;}.cls-23{fill:#3f92d1;}.cls-24{fill:#92b4d1;opacity:.2;}.cls-25{fill:#fc0;}.cls-26{fill:#ffde17;}.cls-27{fill:#03336e;}</style></defs><g class="cls-8"><g id="Capa_1"><g><g><path class="cls-7" d="M288.63,176.74c-7.67-4.43-13.89-15.15-13.89-23.95,0-3.26,.86-5.79,2.33-7.46-4.21,.3-7.06,3.83-7.06,9.77,0,8.8,6.22,19.52,13.89,23.95,4.82,2.78,9.05,2.4,11.54-.44-2.01,.15-4.33-.44-6.81-1.87Z"/><path class="cls-16" d="M302.13,173.84c0-1.1-.1-2.23-.24-3.37l5.61-.71c-.57-2.83-1.44-5.68-2.54-8.5l-6.4-1.93c-1.12-2.39-2.46-4.71-3.98-6.87l1.53-6.45c-1.9-2.37-3.95-4.54-6.13-6.46l-3.44,4.45c-.92-.69-1.85-1.34-2.81-1.9-.96-.55-1.89-.98-2.81-1.35l-3.44-8.43c-2.18-.6-4.23-.79-6.13-.62l1.53,8.22c-1.52,.4-2.86,1.17-3.98,2.27l-6.4-5.45c-1.11,1.54-1.97,3.39-2.54,5.56l5.61,7.19c-.14,.97-.24,1.99-.24,3.09s.1,2.23,.24,3.37l-5.61,.71c.57,2.83,1.44,5.68,2.54,8.5l6.4,1.93c1.12,2.39,2.46,4.71,3.98,6.87l-1.53,6.45c1.9,2.37,3.95,4.54,6.13,6.46l3.44-4.45c.92,.69,1.85,1.34,2.81,1.9,.96,.55,1.89,.98,2.81,1.35l3.44,8.43c2.18,.6,4.23,.8,6.13,.62l-1.53-8.22c1.52-.4,2.86-1.17,3.98-2.27l6.4,5.45c1.11-1.54,1.97-3.39,2.54-5.56l-5.61-7.19c.14-.97,.24-1.99,.24-3.09Zm-18.22,5.21c-7.67-4.43-13.89-15.15-13.89-23.95s6.22-12.35,13.89-7.92c7.67,4.43,13.89,15.15,13.89,23.95s-6.22,12.35-13.89,7.92Z"/><polygon class="cls-7" points="286.3 137.66 282.85 129.24 277.48 132.33 280.92 140.75 286.3 137.66"/><path class="cls-2" d="M280.92,140.75c.92,.37,1.85,.8,2.81,1.35,.96,.55,1.89,1.2,2.81,1.9l3.44-4.45h0s-.58-.36-.88-.53c-.96-.55-1.89-.98-2.81-1.35l-5.38,3.09Z"/><path class="cls-2" d="M282.85,129.24c-2.18-.6-4.23-.8-6.13-.62l-5.38,3.09c1.9-.18,3.95,.02,6.13,.62l5.38-3.09Z"/><path class="cls-2" d="M301.49,142.92c-1.9-2.37-3.95-4.54-6.13-6.46l-5.38,3.09c2.17,1.91,4.23,4.09,6.13,6.46l5.38-3.09Z"/><polygon class="cls-7" points="296.11 146.01 294.58 152.46 299.96 149.37 301.49 142.92 296.11 146.01"/><path class="cls-7" d="M294.58,152.46c1.52,2.16,2.86,4.47,3.98,6.87l5.38-3.09c-1.12-2.39-2.46-4.71-3.98-6.87l-5.38,3.09Z"/><polygon class="cls-2" points="298.56 159.33 304.96 161.26 310.34 158.17 303.94 156.24 298.56 159.33"/><path class="cls-7" d="M304.96,161.26c1.11,2.81,1.97,5.67,2.54,8.5l5.38-3.09c-.57-2.83-1.44-5.68-2.54-8.5l-5.38,3.09Z"/><path class="cls-7" d="M272.88,139.93l-.45-2.39-4.55-3.88-5.38,3.09,6.4,5.45c1.12-1.1,2.46-1.87,3.98-2.27Z"/><path class="cls-7" d="M307.5,184.12c-.57,2.17-1.44,4.03-2.54,5.56l5.38-3.09c1.11-1.54,1.97-3.39,2.54-5.56l-5.38,3.09Z"/><path class="cls-7" d="M307.27,173.84c.14-.97,.24-1.99,.24-3.09,0-.32-.02-.65-.04-.98l-5.58,.71c.14,1.14,.24,2.27,.24,3.37s-.1,2.12-.24,3.09l5.38-3.09Z"/><polygon class="cls-2" points="301.89 176.93 307.5 184.12 312.88 181.03 307.27 173.84 301.89 176.93"/><path class="cls-7" d="M298.56,184.23c-1.12,1.1-2.46,1.87-3.98,2.27l1.53,8.22,5.38-3.09-1.09-5.83-1.84-1.57Z"/><path class="cls-2" d="M265.37,153.49l-5.41,3.18,5.61-.71c-.1-.83-.17-1.65-.2-2.47Z"/><path class="cls-7" d="M280.92,182.43l-3.44,4.45,5.42-3.08c-.67-.43-1.33-.88-1.98-1.37Z"/><g class="cls-20"><path class="cls-3" d="M272.23,140.3l-.02-.08c-.26,.1-.5,.22-.75,.34,.25-.09,.5-.18,.76-.25Z"/><path class="cls-3" d="M264.89,156.06l-4.66,.59c.02,.09,.04,.18,.06,.27l4.63-.59c-.01-.09-.02-.18-.03-.28Z"/><path class="cls-3" d="M295.81,146.36l-1.53,6.45c1.52,2.16,2.86,4.47,3.98,6.87l6.4,1.93c1.07,2.72,1.91,5.49,2.48,8.23l.63-.1c-.57-2.83-1.44-5.68-2.54-8.5l-6.4-1.93c-1.12-2.39-2.46-4.71-3.98-6.87l1.53-6.45c-1.9-2.37-3.95-4.54-6.13-6.46l-.21,.71c2.04,1.83,3.98,3.89,5.76,6.12Z"/><path class="cls-3" d="M283.96,178.94c-7.67-4.43-13.89-15.15-13.89-23.95,0-3.89,1.22-6.74,3.24-8.33-2.33,1.5-3.76,4.5-3.76,8.71,0,8.8,6.22,19.52,13.89,23.95,3.87,2.24,7.37,2.43,9.89,.95-.19,.06-.38,.09-.57,.14-2.39,.87-5.45,.46-8.79-1.47Z"/><path class="cls-3" d="M295.62,186.22c.92-.33,1.77-.8,2.53-1.42l-.24-.2c-.68,.67-1.45,1.2-2.29,1.62Z"/><path class="cls-3" d="M268.7,142.35c-.23,.01,0-.18,.24-.37l-6.16-5.25c-.17,.24-.33,.51-.04,.54l5.97,5.08Z"/><path class="cls-6" d="M294.43,186.87l1.47,7.87c-.17,0,.16-.01,.49-.04l-1.52-8.14c-.31,.12-.62,.23-.44,.31Z"/><path class="cls-3" d="M302.4,173.81c0-1.01-.09-2.05-.21-3.09l-.56,.04c.14,1.14,.24,2.27,.24,3.37s-.1,2.12-.24,3.09l5.61,7.19c-.48,1.83-1.18,3.42-2.05,4.8l.04,.45c1.11-1.54,1.97-3.39,2.54-5.56l-5.61-7.19c.14-.97,.24-1.99,.24-3.09Z"/><path class="cls-3" d="M277.24,132.55l3.44,8.43c.92,.37,1.85,.8,2.81,1.35,.96,.55,1.89,1.2,2.81,1.9l.11-.53c-.79-.58-1.59-1.14-2.42-1.61-.96-.55-1.89-.98-2.81-1.35l-3.44-8.43c-2.18-.6-4.23-.79-6.13-.62l.07,.35c1.62-.04,3.75,.02,5.55,.51Z"/><path class="cls-3" d="M280.26,182.8l-2.88,3.72c.12,.11,.24,.23,.36,.33l2.92-3.77c-.13-.1-.27-.19-.4-.29Z"/></g></g><g><path class="cls-7" d="M286.64,110.7c-11.54-6.66-20.89-22.79-20.89-36.03,0-4.91,1.3-8.71,3.51-11.23-6.33,.46-10.61,5.76-10.61,14.7,0,13.24,9.35,29.37,20.89,36.03,7.25,4.18,13.61,3.61,17.35-.67-3.03,.22-6.52-.66-10.25-2.81Z"/><path class="cls-16" d="M306.94,106.33c0-1.66-.14-3.35-.36-5.06l8.44-1.07c-.86-4.25-2.16-8.55-3.83-12.78l-9.62-2.91c-1.68-3.6-3.7-7.08-5.99-10.33l2.31-9.71c-2.85-3.56-5.94-6.84-9.21-9.71l-5.18,6.7c-1.38-1.04-2.79-2.02-4.23-2.85-1.44-.83-2.85-1.48-4.23-2.03l-5.18-12.68c-3.27-.9-6.36-1.2-9.21-.93l2.31,12.37c-2.29,.6-4.31,1.75-5.99,3.41l-9.62-8.2c-1.67,2.31-2.97,5.11-3.83,8.36l8.44,10.82c-.21,1.46-.36,3-.36,4.65s.14,3.35,.36,5.06l-8.44,1.07c.86,4.25,2.16,8.55,3.83,12.78l9.62,2.91c1.68,3.6,3.7,7.08,5.99,10.33l-2.31,9.71c2.85,3.56,5.94,6.84,9.21,9.71l5.18-6.7c1.38,1.04,2.79,2.02,4.23,2.85,1.44,.83,2.85,1.48,4.23,2.03l5.18,12.68c3.27,.9,6.36,1.2,9.21,.93l-2.31-12.37c2.29-.6,4.31-1.75,5.99-3.41l9.62,8.2c1.67-2.31,2.97-5.11,3.83-8.36l-8.44-10.82c.21-1.46,.36-3,.36-4.65Zm-27.4,7.84c-11.54-6.66-20.89-22.79-20.89-36.03s9.35-18.57,20.89-11.91c11.54,6.66,20.89,22.79,20.89,36.03s-9.35,18.57-20.89,11.91Z"/><polygon class="cls-7" points="283.13 51.92 277.95 39.24 269.86 43.89 275.03 56.57 283.13 51.92"/><path class="cls-2" d="M275.03,56.57c1.38,.55,2.79,1.2,4.23,2.03s2.85,1.81,4.23,2.85l5.18-6.7h0s-.87-.55-1.32-.8c-1.44-.83-2.85-1.48-4.23-2.03l-8.09,4.65Z"/><path class="cls-2" d="M277.95,39.24c-3.27-.9-6.36-1.2-9.21-.93l-8.09,4.65c2.85-.27,5.94,.03,9.21,.93l8.09-4.65Z"/><path class="cls-2" d="M305.99,59.82c-2.85-3.56-5.94-6.84-9.21-9.71l-8.09,4.65c3.27,2.87,6.36,6.15,9.21,9.71l8.09-4.65Z"/><polygon class="cls-7" points="297.89 64.47 295.59 74.18 303.68 69.53 305.99 59.82 297.89 64.47"/><path class="cls-7" d="M295.59,74.18c2.29,3.25,4.31,6.73,5.99,10.33l8.09-4.65c-1.68-3.6-3.7-7.08-5.99-10.33l-8.09,4.65Z"/><polygon class="cls-2" points="301.58 84.5 311.2 87.41 319.29 82.77 309.67 79.86 301.58 84.5"/><path class="cls-7" d="M311.2,87.41c1.67,4.23,2.97,8.53,3.83,12.78l8.09-4.65c-.86-4.25-2.16-8.55-3.83-12.78l-8.09,4.65Z"/><path class="cls-7" d="M262.95,55.33l-.67-3.6-6.85-5.84-8.09,4.65,9.62,8.2c1.68-1.66,3.7-2.81,5.99-3.41Z"/><path class="cls-7" d="M315.02,121.8c-.86,3.26-2.16,6.05-3.83,8.36l8.09-4.65c1.67-2.31,2.97-5.11,3.83-8.36l-8.09,4.65Z"/><path class="cls-7" d="M314.67,106.33c.21-1.46,.36-3,.36-4.65,0-.49-.03-.98-.06-1.48l-8.39,1.06c.21,1.71,.36,3.41,.36,5.06s-.14,3.19-.36,4.65l8.09-4.65Z"/><polygon class="cls-2" points="306.58 110.98 315.02 121.8 323.12 117.15 314.67 106.33 306.58 110.98"/><path class="cls-7" d="M301.58,121.96c-1.68,1.66-3.7,2.81-5.99,3.41l2.31,12.37,8.09-4.65-1.63-8.77-2.77-2.36Z"/><path class="cls-2" d="M251.65,75.73l-8.14,4.78,8.44-1.07c-.16-1.25-.25-2.48-.3-3.71Z"/><path class="cls-7" d="M275.03,119.25l-5.18,6.7,8.15-4.64c-1-.64-2-1.32-2.97-2.06Z"/><g class="cls-20"><path class="cls-3" d="M261.96,55.89l-.02-.12c-.39,.15-.75,.32-1.12,.51,.38-.14,.75-.28,1.14-.38Z"/><path class="cls-3" d="M250.93,79.58l-7.01,.89c.03,.14,.06,.27,.09,.41l6.96-.88c-.02-.14-.03-.28-.04-.41Z"/><path class="cls-3" d="M297.44,64.99l-2.31,9.71c2.29,3.25,4.31,6.73,5.99,10.33l9.62,2.91c1.61,4.1,2.87,8.26,3.73,12.37l.95-.16c-.86-4.25-2.16-8.55-3.83-12.78l-9.62-2.91c-1.68-3.6-3.7-7.08-5.99-10.33l2.31-9.71c-2.85-3.56-5.94-6.84-9.21-9.71l-.32,1.07c3.07,2.76,5.98,5.85,8.67,9.21Z"/><path class="cls-3" d="M279.6,114.01c-11.54-6.66-20.89-22.79-20.89-36.03,0-5.85,1.83-10.13,4.87-12.54-3.51,2.26-5.66,6.76-5.66,13.1,0,13.24,9.35,29.37,20.89,36.03,5.82,3.36,11.09,3.66,14.88,1.43-.28,.09-.57,.14-.86,.21-3.6,1.31-8.2,.69-13.22-2.21Z"/><path class="cls-3" d="M297.14,124.96c1.39-.5,2.66-1.21,3.81-2.13l-.36-.3c-1.02,1.01-2.19,1.81-3.45,2.44Z"/><path class="cls-3" d="M256.65,58.96c-.35,.01,0-.27,.36-.56l-9.26-7.9c-.26,.36-.5,.76-.06,.81l8.97,7.65Z"/><path class="cls-6" d="M295.36,125.93l2.21,11.84c-.26-.01,.25-.02,.73-.06l-2.28-12.25c-.46,.18-.93,.34-.66,.47Z"/><path class="cls-3" d="M307.34,106.29c0-1.52-.13-3.08-.32-4.65l-.84,.06c.21,1.71,.36,3.41,.36,5.06s-.14,3.19-.36,4.65l8.44,10.82c-.72,2.75-1.78,5.14-3.08,7.22l.05,.67c1.67-2.31,2.97-5.11,3.83-8.36l-8.44-10.82c.21-1.46,.36-3,.36-4.65Z"/><path class="cls-3" d="M269.5,44.22l5.18,12.68c1.38,.55,2.79,1.2,4.23,2.03,1.44,.83,2.85,1.81,4.23,2.85l.16-.8c-1.19-.88-2.4-1.71-3.63-2.42-1.44-.83-2.85-1.48-4.23-2.03l-5.18-12.68c-3.27-.9-6.36-1.2-9.21-.93l.1,.53c2.43-.06,5.64,.02,8.36,.77Z"/><path class="cls-3" d="M274.05,119.81l-4.33,5.6c.18,.16,.36,.34,.54,.5l4.38-5.67c-.2-.15-.4-.28-.6-.43Z"/></g></g><path class="cls-21" d="M289.72,38.31c.06-1.34,.98-1.92,2.05-1.3,1.07,.62,1.89,2.2,1.82,3.54s-.98,1.92-2.05,1.3c-1.07-.62-1.89-2.2-1.82-3.54Z"/><path class="cls-21" d="M283.74,198.34c.04-.89,.65-1.28,1.37-.87,.71,.41,1.25,1.47,1.21,2.36-.04,.89-.65,1.28-1.37,.87-.71-.41-1.25-1.47-1.21-2.36Z"/><path class="cls-21" d="M322.85,133.64c-.15,0-.29-.07-.39-.19-.13-.16-.14-.38-.04-.56l2.4-4.11c.14-.24,.45-.32,.68-.18,.24,.14,.32,.45,.18,.68l-1.75,3,3.54-1.09c.26-.08,.54,.07,.62,.33,.08,.26-.07,.54-.33,.62l-4.76,1.47s-.1,.02-.15,.02Z"/><g><path class="cls-10" d="M281.32,151.76c1.87,1.08,3.52,3.15,4.46,5.38,.02,.04,1.06-.33,1.48-.5,.92-.37,2.12-.23,3.43,.53,2.92,1.69,5.29,5.77,5.29,9.12,0,6.13-10.49,8.25-10.49,8.25,0,0-9.97-13.33-9.97-19.45,0-1.67-.71-2.19,.24-2.73,.08-.05,1.98-1.06,2.07-1.09,.93-.4,2.15-.27,3.49,.51Z"/><path class="cls-21" d="M279.56,152.71c2.04,1.18,3.8,3.52,4.68,5.96,.88-1.42,2.65-1.73,4.68-.55,2.92,1.69,5.29,5.77,5.29,9.12,0,6.13-9.97,7.94-9.97,7.94,0,0-9.97-13.33-9.97-19.45,0-3.35,2.37-4.7,5.29-3.01Z"/><g class="cls-20"><path class="cls-5" d="M279.27,152.84c2.04,1.18,4.04,3.52,4.92,5.97,.18-.29-.07-.18,.18-.38-.92-2.33-2.61-4.52-4.55-5.64-1.6-.92-2.81-1.14-3.76-.55,.89-.27,2-.1,3.21,.6Z"/><path class="cls-5" d="M289.07,158.1c-1.59-.92-2.84-.94-3.63-.45,.89-.27,1.99-.1,3.2,.6,2.92,1.69,5.29,5.77,5.29,9.12,0,2.85-2.15,4.76-4.46,6,2.58-1.21,4.89-2.98,4.89-6.15,0-3.35-2.37-7.44-5.29-9.12Z"/></g></g><path class="cls-21" d="M324.37,132.96l-.67-.74c5.38-4.89,8.23-12.85,8.23-23.03,0-25.34-17.97-56.33-40.05-69.08l.5-.87c22.36,12.91,40.55,44.29,40.55,69.95,0,10.47-2.96,18.69-8.55,23.77Z"/><g><path class="cls-16" d="M340.24,115.89h0c-.28,0-.5-.23-.49-.51,0-.33,0-.66,0-.99,0-.28,.22-.5,.5-.5s.5,.22,.5,.5c0,.34,0,.68,0,1.01,0,.27-.23,.49-.5,.49Z"/><path class="cls-16" d="M312.71,150.54c-.27,0-.5-.22-.5-.5,0-.28,.22-.5,.5-.5,.65,0,1.31-.03,1.95-.08,.27-.02,.51,.19,.54,.46,.02,.28-.19,.51-.46,.54-.66,.05-1.34,.08-2.02,.08h0Zm-2.97-.12s-.03,0-.04,0c-.66-.06-1.33-.13-2-.23-.27-.04-.46-.29-.43-.56,.04-.27,.3-.46,.56-.43,.66,.09,1.3,.17,1.95,.22,.28,.02,.48,.26,.46,.54-.02,.26-.24,.46-.5,.46Zm7.91-.34c-.24,0-.45-.17-.49-.41-.05-.27,.13-.53,.4-.58,.64-.12,1.28-.26,1.9-.42,.26-.07,.54,.09,.61,.36,.07,.27-.09,.54-.36,.61-.64,.17-1.31,.32-1.97,.44-.03,0-.06,0-.09,0Zm4.77-1.35c-.2,0-.39-.12-.46-.32-.1-.26,.02-.55,.28-.65,.6-.24,1.2-.5,1.77-.79,.25-.12,.55-.02,.67,.23,.12,.25,.02,.55-.23,.67-.6,.3-1.22,.57-1.85,.82-.06,.02-.12,.04-.18,.04Zm4.39-2.28c-.16,0-.32-.08-.42-.22-.15-.23-.09-.54,.14-.69,.54-.36,1.07-.74,1.58-1.14,.22-.17,.53-.13,.7,.08,.17,.22,.13,.53-.08,.7-.53,.41-1.08,.81-1.64,1.18-.09,.06-.18,.08-.28,.08Zm3.84-3.14c-.13,0-.26-.05-.35-.15-.2-.19-.2-.51,0-.71,.46-.46,.9-.94,1.32-1.43,.18-.21,.5-.23,.71-.05,.21,.18,.23,.5,.05,.71-.44,.51-.9,1.01-1.37,1.48-.1,.1-.23,.15-.35,.15Zm3.15-3.82c-.1,0-.2-.03-.28-.09-.23-.16-.29-.47-.13-.7,.37-.53,.72-1.09,1.05-1.65,.14-.24,.45-.32,.68-.18,.24,.14,.32,.45,.18,.68-.34,.58-.7,1.15-1.08,1.7-.1,.14-.25,.22-.41,.22Zm2.45-4.31c-.07,0-.14-.02-.21-.05-.25-.12-.36-.42-.24-.67,.27-.58,.54-1.18,.78-1.79,.1-.26,.4-.38,.65-.28,.26,.1,.38,.4,.28,.65-.25,.63-.52,1.25-.81,1.85-.08,.18-.26,.29-.45,.29Zm1.8-4.62s-.1,0-.15-.02c-.26-.08-.41-.36-.33-.63,.19-.62,.37-1.24,.54-1.88,.07-.27,.35-.43,.61-.36,.27,.07,.43,.34,.36,.61-.17,.66-.36,1.3-.56,1.93-.07,.21-.26,.35-.48,.35Zm1.21-4.81s-.06,0-.1,0c-.27-.05-.45-.32-.4-.59,.12-.63,.24-1.28,.34-1.94,.04-.27,.29-.46,.57-.42,.27,.04,.46,.3,.42,.57-.1,.67-.22,1.33-.34,1.98-.05,.24-.26,.4-.49,.4Zm.71-4.91s-.03,0-.05,0c-.27-.03-.48-.27-.45-.55,.06-.65,.11-1.3,.16-1.96,.02-.27,.23-.48,.53-.47,.28,.02,.49,.25,.47,.53-.04,.67-.1,1.34-.16,2-.03,.26-.24,.45-.5,.45Z"/><path class="cls-16" d="M304.78,149.66s-.07,0-.11-.01c-.33-.07-.66-.15-.99-.23-.27-.07-.43-.34-.37-.61,.07-.27,.34-.43,.61-.37,.32,.08,.64,.16,.96,.23,.27,.06,.44,.33,.38,.6-.05,.23-.26,.39-.49,.39Z"/></g><g><path class="cls-16" d="M240.75,70.51c-.24,0-.45-.17-.49-.41-.06-.33-.12-.66-.17-.99-.05-.27,.14-.53,.41-.58,.27-.05,.53,.14,.58,.41,.05,.33,.11,.65,.17,.98,.05,.27-.13,.53-.4,.58-.03,0-.06,0-.09,0Z"/><path class="cls-16" d="M332.94,80.67c-.2,0-.38-.12-.46-.31-.25-.62-.51-1.24-.77-1.86-.11-.25,0-.55,.26-.66,.26-.11,.55,0,.66,.26,.27,.63,.53,1.25,.78,1.88,.1,.26-.02,.55-.28,.65-.06,.02-.12,.04-.19,.04Zm-2.01-4.65c-.19,0-.37-.11-.45-.29-.28-.61-.56-1.22-.85-1.83-.12-.25-.01-.55,.24-.67,.25-.12,.55-.01,.67,.24,.29,.61,.58,1.23,.86,1.85,.11,.25,0,.55-.25,.66-.07,.03-.14,.04-.21,.04Zm-2.2-4.56c-.18,0-.36-.1-.45-.27-.3-.6-.61-1.2-.93-1.79-.13-.24-.04-.55,.21-.68,.25-.13,.55-.04,.68,.21,.32,.6,.63,1.2,.94,1.81,.12,.25,.03,.55-.22,.67-.07,.04-.15,.05-.23,.05Zm-2.39-4.47c-.17,0-.34-.09-.44-.25-.33-.59-.66-1.17-1-1.75-.14-.24-.06-.54,.18-.68,.24-.14,.54-.06,.68,.18,.34,.59,.68,1.17,1.01,1.77,.14,.24,.05,.55-.19,.68-.08,.04-.16,.06-.25,.06Zm-86.22-.46c-.25,0-.46-.18-.5-.43-.09-.68-.17-1.35-.24-2.02-.03-.27,.17-.52,.44-.55,.27-.03,.52,.17,.55,.44,.07,.66,.15,1.33,.24,2,.04,.27-.16,.52-.43,.56-.02,0-.04,0-.07,0Zm83.65-3.9c-.17,0-.33-.08-.43-.24-.35-.57-.71-1.14-1.07-1.71-.15-.23-.08-.54,.15-.69,.23-.15,.54-.08,.69,.15,.37,.57,.72,1.14,1.08,1.72,.14,.23,.07,.54-.16,.69-.08,.05-.17,.07-.26,.07Zm-84.15-1.13c-.26,0-.48-.2-.5-.47-.05-.68-.08-1.36-.11-2.04-.01-.28,.2-.51,.48-.52,0,0,.01,0,.02,0,.27,0,.49,.21,.5,.48,.03,.67,.06,1.34,.11,2.01,.02,.28-.19,.51-.46,.53-.01,0-.02,0-.04,0Zm81.41-3.12c-.16,0-.32-.08-.41-.22-.38-.56-.76-1.11-1.14-1.66-.16-.23-.1-.54,.12-.7,.22-.16,.54-.1,.7,.12,.39,.55,.77,1.11,1.15,1.67,.16,.23,.09,.54-.13,.69-.09,.06-.18,.09-.28,.09Zm-81.57-1.94h0c-.28,0-.5-.23-.5-.5,0-.69,.02-1.37,.04-2.04,0-.27,.23-.48,.5-.48,0,0,.01,0,.02,0,.28,0,.49,.24,.48,.52-.02,.66-.04,1.33-.04,2.01,0,.28-.22,.5-.5,.5Zm78.66-2.19c-.15,0-.3-.07-.4-.2-.4-.54-.8-1.08-1.21-1.61-.17-.22-.13-.53,.09-.7,.22-.17,.53-.13,.7,.09,.41,.54,.82,1.08,1.22,1.62,.16,.22,.12,.54-.11,.7-.09,.07-.19,.1-.3,.1Zm-78.43-2.86s-.03,0-.04,0c-.28-.02-.48-.27-.46-.54,.06-.69,.13-1.37,.21-2.03,.03-.27,.29-.47,.56-.43,.27,.03,.47,.28,.44,.56-.08,.65-.15,1.32-.21,2-.02,.26-.24,.46-.5,.46Zm75.34-1.14c-.15,0-.29-.06-.39-.19-.42-.52-.85-1.04-1.28-1.56-.18-.21-.15-.53,.06-.7,.21-.18,.52-.15,.7,.06,.43,.52,.86,1.04,1.29,1.57,.17,.22,.14,.53-.08,.7-.09,.07-.2,.11-.31,.11Zm-3.26-3.86c-.14,0-.28-.06-.37-.17-.44-.5-.89-1-1.34-1.49-.19-.2-.17-.52,.03-.71,.2-.19,.52-.17,.71,.03,.46,.5,.91,1,1.36,1.51,.18,.21,.16,.52-.04,.71-.1,.08-.21,.12-.33,.12Zm-71.42,0s-.06,0-.09,0c-.27-.05-.45-.31-.4-.58,.12-.68,.26-1.35,.41-2,.06-.27,.33-.44,.6-.38,.27,.06,.44,.33,.38,.6-.15,.64-.28,1.29-.4,1.96-.04,.24-.25,.41-.49,.41Zm67.99-3.7c-.13,0-.26-.05-.36-.15-.47-.48-.94-.96-1.42-1.43-.2-.19-.2-.51,0-.71,.19-.2,.51-.2,.71,0,.48,.48,.96,.96,1.43,1.45,.19,.2,.19,.51,0,.71-.1,.09-.22,.14-.35,.14Zm-66.8-1.21s-.1,0-.15-.02c-.26-.08-.41-.36-.33-.62,.2-.66,.42-1.31,.65-1.95,.09-.26,.38-.39,.64-.3,.26,.09,.39,.38,.3,.64-.22,.62-.43,1.25-.63,1.9-.07,.22-.26,.35-.48,.35Zm63.19-2.33c-.12,0-.24-.04-.34-.13-.49-.46-.99-.91-1.49-1.36-.21-.18-.22-.5-.04-.71,.18-.21,.5-.22,.71-.04,.5,.45,1.01,.91,1.5,1.37,.2,.19,.21,.5,.03,.71-.1,.11-.23,.16-.37,.16Zm-61.4-2.4c-.07,0-.14-.01-.21-.05-.25-.12-.36-.41-.25-.66,.29-.63,.59-1.24,.91-1.84,.13-.24,.43-.33,.68-.2,.24,.13,.34,.43,.2,.68-.31,.58-.61,1.17-.89,1.78-.08,.18-.26,.29-.45,.29Zm57.61-.95c-.11,0-.23-.04-.32-.12-.52-.43-1.04-.86-1.56-1.27-.22-.17-.25-.49-.08-.7,.17-.22,.49-.25,.7-.08,.53,.42,1.06,.85,1.58,1.29,.21,.18,.24,.49,.06,.7-.1,.12-.24,.18-.38,.18Zm-3.98-3.13c-.1,0-.21-.03-.3-.1-.54-.4-1.09-.79-1.63-1.18-.23-.16-.28-.47-.12-.7,.16-.23,.47-.28,.7-.12,.55,.39,1.11,.79,1.65,1.19,.22,.16,.27,.48,.11,.7-.1,.13-.25,.2-.4,.2Zm-51.16-.34c-.1,0-.19-.03-.28-.09-.23-.15-.29-.47-.14-.69,.39-.57,.79-1.14,1.21-1.67,.17-.22,.48-.26,.7-.09,.22,.17,.25,.48,.08,.7-.4,.51-.79,1.05-1.17,1.61-.1,.14-.25,.22-.41,.22Zm47-2.54c-.09,0-.19-.03-.27-.08-.57-.36-1.14-.72-1.71-1.06-.24-.14-.31-.45-.17-.69,.14-.24,.45-.31,.69-.17,.58,.35,1.16,.71,1.73,1.08,.23,.15,.3,.46,.15,.69-.1,.15-.26,.23-.42,.23Zm-43.81-1.37c-.13,0-.25-.05-.35-.14-.2-.19-.2-.51,0-.71,.48-.49,.99-.96,1.51-1.41,.21-.18,.52-.16,.71,.05,.18,.21,.16,.52-.05,.71-.5,.43-.98,.88-1.45,1.35-.1,.1-.23,.15-.36,.15Zm39.46-1.21c-.08,0-.16-.02-.24-.06-.6-.32-1.19-.64-1.78-.93-.25-.12-.34-.43-.22-.67s.42-.35,.67-.22c.6,.3,1.2,.62,1.81,.95,.24,.13,.33,.44,.2,.68-.09,.17-.26,.26-.44,.26Zm-35.56-2c-.16,0-.32-.08-.42-.22-.15-.23-.09-.54,.14-.69,.57-.38,1.17-.74,1.77-1.07,.24-.13,.54-.04,.68,.2,.13,.24,.04,.55-.2,.68-.58,.31-1.15,.66-1.69,1.02-.08,.06-.18,.08-.28,.08Zm31.02-.24c-.07,0-.14-.01-.2-.04-.62-.27-1.24-.53-1.85-.78-.26-.1-.38-.39-.28-.65,.1-.26,.39-.38,.65-.28,.62,.25,1.25,.51,1.88,.79,.25,.11,.37,.41,.25,.66-.08,.19-.27,.3-.46,.3Zm-4.72-1.82c-.05,0-.1,0-.16-.02-.64-.21-1.28-.41-1.92-.59-.27-.07-.42-.35-.35-.62,.08-.27,.35-.42,.62-.35,.65,.18,1.3,.38,1.96,.6,.26,.09,.41,.37,.32,.63-.07,.21-.26,.34-.47,.34Zm-21.82-.26c-.2,0-.39-.12-.47-.32-.1-.26,.03-.55,.28-.65,.63-.25,1.29-.48,1.95-.67,.26-.08,.54,.07,.62,.33,.08,.26-.07,.54-.33,.62-.64,.19-1.27,.41-1.87,.65-.06,.02-.12,.03-.18,.03Zm16.94-1.05s-.07,0-.1-.01c-.66-.14-1.32-.25-1.97-.35-.27-.04-.46-.3-.42-.57,.04-.27,.3-.46,.57-.42,.67,.1,1.34,.22,2.02,.36,.27,.06,.44,.32,.39,.59-.05,.24-.26,.4-.49,.4Zm-12.07-.31c-.24,0-.45-.17-.49-.41-.05-.27,.13-.53,.41-.58,.67-.12,1.35-.21,2.04-.28,.27-.03,.52,.17,.55,.45,.03,.27-.17,.52-.45,.55-.66,.07-1.32,.16-1.97,.27-.03,0-.06,0-.09,0Zm7.06-.37s-.02,0-.03,0c-.67-.04-1.34-.06-1.99-.06-.28,0-.5-.22-.5-.5s.22-.5,.5-.5c.68,0,1.36,.02,2.05,.07,.28,.02,.49,.25,.47,.53-.02,.27-.24,.47-.5,.47Z"/><path class="cls-16" d="M334.41,84.5c-.2,0-.4-.13-.47-.33l-.35-.94c-.1-.26,.04-.55,.29-.64,.25-.1,.55,.04,.64,.29l.35,.94c.09,.26-.04,.55-.3,.64-.06,.02-.12,.03-.17,.03Z"/></g><g><path class="cls-21" d="M316.28,159.1c-.2,0-.38-.12-.46-.31-.12-.31-.25-.61-.38-.92-.11-.25,.01-.55,.27-.65,.26-.11,.55,.01,.65,.27,.13,.31,.26,.62,.38,.93,.1,.26-.02,.55-.28,.65-.06,.02-.12,.04-.19,.04Z"/><path class="cls-21" d="M302.48,205.65h0c-.67,0-1.35-.04-2.02-.1-.28-.03-.48-.27-.45-.54,.03-.28,.29-.47,.54-.45,.65,.06,1.3,.09,1.93,.1,.28,0,.5,.23,.5,.5,0,.28-.22,.5-.5,.5Zm2.96-.21c-.24,0-.46-.18-.49-.43-.04-.27,.15-.53,.42-.57,.64-.1,1.27-.23,1.88-.39,.27-.07,.54,.09,.61,.35,.07,.27-.09,.54-.35,.61-.65,.17-1.32,.31-1.99,.41-.03,0-.05,0-.08,0Zm-7.87-.35s-.07,0-.11-.01c-.64-.14-1.3-.3-1.95-.49-.27-.08-.42-.35-.34-.62,.08-.27,.35-.42,.62-.34,.64,.18,1.27,.34,1.89,.48,.27,.06,.44,.32,.38,.59-.05,.23-.26,.39-.49,.39Zm12.59-1.07c-.19,0-.37-.11-.45-.29-.12-.25-.01-.55,.24-.66,.57-.27,1.14-.58,1.68-.92,.23-.15,.54-.08,.69,.15,.15,.23,.08,.54-.15,.69-.57,.37-1.18,.7-1.79,.98-.07,.03-.14,.05-.21,.05Zm-17.33-.38c-.06,0-.12-.01-.18-.03-.61-.24-1.23-.5-1.85-.79-.25-.12-.36-.41-.25-.66,.12-.25,.41-.36,.66-.25,.6,.28,1.2,.53,1.8,.76,.26,.1,.38,.39,.28,.65-.08,.2-.27,.32-.47,.32Zm21.4-2.39c-.13,0-.27-.05-.37-.16-.19-.2-.18-.52,.03-.71,.46-.43,.91-.9,1.33-1.39,.18-.21,.5-.24,.7-.06,.21,.18,.24,.49,.06,.7-.44,.52-.92,1.01-1.41,1.47-.1,.09-.22,.13-.34,.13Zm3.11-3.83c-.09,0-.18-.02-.26-.07-.24-.14-.31-.45-.17-.69,.33-.54,.64-1.11,.93-1.69,.12-.25,.43-.35,.67-.23,.25,.12,.35,.42,.23,.67-.3,.61-.63,1.21-.97,1.78-.09,.15-.26,.24-.43,.24Zm2.08-4.48c-.05,0-.11,0-.16-.03-.26-.09-.4-.37-.31-.63,.21-.6,.4-1.23,.56-1.86,.07-.27,.34-.43,.61-.36,.27,.07,.43,.34,.36,.61-.17,.66-.37,1.31-.58,1.93-.07,.21-.26,.34-.47,.34Zm1.19-4.8s-.06,0-.08,0c-.27-.04-.46-.3-.41-.58,.1-.63,.19-1.27,.26-1.93,.03-.28,.28-.48,.55-.44,.27,.03,.47,.28,.44,.55-.07,.68-.16,1.34-.27,1.99-.04,.25-.25,.42-.49,.42Zm.47-4.93h-.02c-.28,0-.49-.24-.48-.52,.01-.45,.02-.9,.02-1.37v-.59c0-.28,.21-.5,.49-.51,.28,.04,.5,.22,.51,.49v.61c0,.47,0,.94-.02,1.4,0,.27-.23,.48-.5,.48Zm-.12-4.95c-.26,0-.48-.2-.5-.46-.05-.65-.11-1.3-.18-1.96-.03-.27,.17-.52,.44-.55,.27-.03,.52,.17,.55,.44,.07,.67,.14,1.33,.19,1.99,.02,.28-.19,.52-.46,.54-.01,0-.03,0-.04,0Zm-.6-4.92c-.24,0-.45-.17-.49-.42-.11-.64-.23-1.29-.36-1.93-.05-.27,.12-.53,.39-.59,.27-.05,.53,.12,.59,.39,.13,.66,.25,1.31,.36,1.96,.05,.27-.14,.53-.41,.58-.03,0-.06,0-.08,0Zm-1.01-4.85c-.22,0-.43-.15-.49-.38-.16-.63-.33-1.27-.51-1.9-.08-.27,.08-.54,.35-.62,.26-.07,.54,.08,.62,.35,.18,.64,.35,1.29,.51,1.93,.07,.27-.1,.54-.36,.61-.04,0-.08,.01-.12,.01Zm-1.38-4.76c-.21,0-.41-.13-.47-.34-.21-.62-.42-1.24-.64-1.86-.09-.26,.04-.55,.3-.64,.26-.09,.55,.04,.64,.3,.22,.63,.44,1.26,.65,1.89,.09,.26-.06,.55-.32,.63-.05,.02-.1,.03-.16,.03Z"/><path class="cls-21" d="M288.33,201.52c-.08,0-.16-.02-.24-.06-.29-.16-.59-.33-.88-.5-.24-.14-.32-.44-.18-.68,.14-.24,.44-.32,.68-.18,.29,.17,.58,.33,.86,.49,.24,.13,.33,.44,.2,.68-.09,.17-.26,.26-.44,.26Z"/></g><path class="cls-21" d="M315.09,159.59s-.02,0-.03,0c-.28-.02-.49-.25-.47-.53l.17-2.67c.01-.18,.12-.34,.29-.42,.17-.08,.36-.06,.51,.05l2.25,1.67c.22,.16,.27,.48,.1,.7-.16,.22-.48,.27-.7,.1l-1.51-1.12-.11,1.75c-.02,.26-.24,.47-.5,.47Z"/></g><path class="cls-3" d="M133.62,70.97c-.02-3.28-4.64-5.95-10.33-5.96-5.69-.01-10.28,2.64-10.26,5.93,.02,3,3.89,5.49,8.91,5.9v1.66c-.94,.15-1.64,.64-1.64,1.24l.03,5.68c0,.71,1.01,1.29,2.24,1.29h1.69c1.23,0,2.23-.57,2.22-1.28l-.03-5.68c0-.6-.71-1.09-1.66-1.24v-1.66c5-.39,8.85-2.86,8.84-5.87Z"/><g><path class="cls-2" d="M258.25,303.38L79.49,200.1c-6.92-4-12.53-14.72-12.53-23.94V13.54c0-9.23,5.61-13.47,12.53-9.47l178.77,103.27c6.92,4,12.53,14.72,12.53,23.94v162.62c0,9.23-5.61,13.47-12.53,9.47Z"/><path class="cls-23" d="M263.21,104.78L84.44,1.5c-2.74-1.58-5.27-1.87-7.33-1.08-.26,.1-5.16,2.63-5.41,2.77,0,0-.01,0-.01,0,2.13-1.04,4.84-.84,7.8,.86l178.77,103.27c6.92,4,12.53,14.72,12.53,23.94v162.62c0,5.76-2.19,9.57-5.51,10.66,.27,.02,.61-.09,1.1-.37,.16-.09,5.35-2.9,5.51-3.01,2.38-1.67,3.86-5.09,3.86-9.84V128.72c0-9.23-5.61-19.95-12.53-23.94Z"/><path class="cls-18" d="M261.81,105.45L83.04,2.18c-2.74-1.58-5.27-1.87-7.33-1.08-.26,.1-3.76,1.96-4,2.09,0,0-.01,0-.01,0,2.13-1.04,4.84-.84,7.8,.86l178.77,103.27,3.55-1.89Z"/><path class="cls-4" d="M258.86,107.04L80.09,3.76c-2.84-1.64-5.45-1.87-7.55-.96,1.79-.28,3.85,.15,6.04,1.42l178.77,103.27c6.92,4,12.53,14.72,12.53,23.94v162.62c0,5.44-1.96,9.13-4.98,10.44,3.87-.61,6.49-4.58,6.49-10.89V130.98c0-9.23-5.61-19.95-12.53-23.94Z"/><path class="cls-27" d="M74,28V176.16c0,7.24,3.44,14.31,9.01,17.85l176.86,102.16c.07,.04,.17,.1,.29,.17,1.6,.91,3.59-.24,3.59-2.08V137.61L74,28Z"/><path class="cls-9" d="M263.5,295c-.13-.07-.23-.13-.29-.17L86.34,192.68c-5.57-3.54-9.01-10.61-9.01-17.85V29.92l-3.33-1.93V176.16c0,7.24,3.44,14.31,9.01,17.85l176.86,102.16c.07,.04,.17,.1,.29,.17,1.35,.77,2.97,.06,3.44-1.29-.03-.02-.07-.02-.11-.04Z"/><g><path class="cls-25" d="M253.79,119.82c0,2.19,1.54,4.85,3.45,5.95,1.9,1.1,3.45,.22,3.45-1.97s-1.54-4.85-3.45-5.95c-1.9-1.1-3.45-.22-3.45,1.97Z"/><path class="cls-21" d="M244.9,114.66c0,2.19,1.54,4.85,3.45,5.95,1.9,1.1,3.45,.22,3.45-1.97s-1.54-4.85-3.45-5.95c-1.9-1.1-3.45-.22-3.45,1.97Z"/><path class="cls-14" d="M236,109.49c0,2.19,1.54,4.85,3.45,5.95,1.9,1.1,3.45,.22,3.45-1.97s-1.54-4.85-3.45-5.95c-1.9-1.1-3.45-.22-3.45,1.97Z"/></g></g><path class="cls-7" d="M190.64,104.55l-12.97-7.49c-1.31-.76-2.37-.15-2.37,1.35s1.06,3.34,2.37,4.09l12.97,7.49c1.31,.76,2.37,.15,2.37-1.35s-1.06-3.34-2.37-4.09Zm21.36,12.33l-12.97-7.49c-1.31-.76-2.37-.15-2.37,1.35s1.06,3.34,2.37,4.09l12.97,7.49c1.31,.76,2.37,.15,2.37-1.35s-1.06-3.34-2.37-4.09Zm21.36,12.33l-12.97-7.49c-1.31-.76-2.37-.15-2.37,1.35s1.06,3.34,2.37,4.09l12.97,7.49c1.31,.76,2.37,.15,2.37-1.35s-1.06-3.34-2.37-4.09Zm21.36,12.33l-12.97-7.49c-1.31-.76-2.37-.15-2.37,1.35s1.06,3.34,2.37,4.09l12.97,7.49c1.31,.76,2.37,.15,2.37-1.35s-1.06-3.34-2.37-4.09Z"/><g><g><polygon class="cls-11" points="139.17 115.25 139.17 171.08 145.28 167.5 145.28 111.52 139.17 115.25"/><polygon class="cls-23" points="139.19 115.25 139.19 171.08 17.4 101.23 17.4 45.25 139.19 115.25"/><polygon class="cls-7" points="17.4 45.25 139.19 115.25 145.28 111.52 23.44 41.57 17.4 45.25"/><polygon class="cls-5" points="17.4 45.25 139.19 115.25 145.28 111.52 139.18 114.4 17.4 45.25"/></g><g><polygon class="cls-3" points="121.36 150.83 121.36 148.46 82.92 126.61 82.92 128.98 121.36 150.83"/><polygon class="cls-3" points="66.27 82.52 66.27 84.89 130.88 121.86 130.88 119.49 66.27 82.52"/><polygon class="cls-3" points="89.02 115.36 66.27 102.22 66.27 104.59 89.02 117.73 89.02 115.36"/><polygon class="cls-3" points="104.42 134.1 104.42 136.47 113.81 141.55 113.81 139.18 104.42 134.1"/><polygon class="cls-3" points="102.96 113.55 66.27 92.37 66.27 94.74 102.96 115.92 102.96 113.55"/><polygon class="cls-3" points="79.71 105.06 66.27 97.3 66.27 99.67 79.71 107.43 79.71 105.06"/><polygon class="cls-3" points="76.29 120.23 102.08 135.12 102.08 132.75 76.29 117.86 76.29 120.23"/><polygon class="cls-3" points="82.04 106.4 82.04 108.77 118.25 129.34 118.25 126.97 82.04 106.4"/><polygon class="cls-3" points="91.35 116.7 91.35 119.07 109.46 129.53 109.46 127.16 91.35 116.7"/><polygon class="cls-3" points="73.96 116.51 66.27 112.07 66.27 114.44 73.96 118.88 73.96 116.51"/><polygon class="cls-3" points="105.29 117.27 130.88 131.71 130.88 129.34 105.29 114.9 105.29 117.27"/><polygon class="cls-3" points="120.58 130.69 130.88 136.63 130.88 134.26 120.58 128.32 120.58 130.69"/><polygon class="cls-3" points="66.27 89.82 130.88 126.78 130.88 124.41 66.27 87.45 66.27 89.82"/><polygon class="cls-3" points="111.79 130.87 130.88 141.56 130.88 139.19 111.79 128.5 111.79 130.87"/><polygon class="cls-3" points="80.58 125.26 66.27 117 66.27 119.37 80.58 127.63 80.58 125.26"/><polygon class="cls-3" points="123.69 152.18 130.88 156.33 130.88 153.96 123.69 149.81 123.69 152.18"/><polygon class="cls-3" points="116.15 142.9 130.88 151.41 130.88 149.04 116.15 140.53 116.15 142.9"/><polygon class="cls-3" points="66.27 109.52 130.88 146.48 130.88 144.11 66.27 107.15 66.27 109.52"/></g><path class="cls-11" d="M52.77,73.15l-21.24-12.29c-3.71-2.14-6.72,.13-6.72,5.08v24.59c0,4.95,3.01,10.7,6.72,12.85l21.24,12.29c3.71,2.14,6.72-.13,6.72-5.08v-24.59c0-4.95-3.01-10.7-6.72-12.85Z"/><path class="cls-17" d="M55.39,113.67l-21.24-12.29c-3.71-2.14-6.72-7.9-6.72-12.85v-24.59c0-1.57,.3-2.86,.83-3.84-2.06,.34-3.46,2.47-3.46,5.84v24.59c0,4.95,3.01,10.7,6.72,12.85l21.24,12.29c2.54,1.47,4.75,.86,5.89-1.25-.97,.16-2.08-.07-3.27-.75Z"/><g><path class="cls-14" d="M36.27,80.02l-21.24-12.29c-3.71-2.14-6.72,.13-6.72,5.08v24.59c0,4.95,3.01,10.7,6.72,12.85l21.24,12.29c3.71,2.14,6.72-.13,6.72-5.08v-24.59c0-4.95-3.01-10.7-6.72-12.85Z"/><path class="cls-15" d="M39.73,77.99l-21.24-12.29c-1.59-.92-3.05-1.02-4.2-.45l-.04-.04-3.67,2.16v.05c1.2-.7,2.75-.66,4.45,.32l21.24,12.29c3.71,2.14,6.72,7.9,6.72,12.85v24.59c0,2.41-.72,4.17-1.87,5.12l2.05-1.35c1.72-.99,3.29-2.52,3.29-5.8v-24.59c0-4.95-3.01-10.7-6.72-12.85Z"/><path class="cls-5" d="M36.65,79.71l-21.24-12.29c-1.84-1.07-3.51-1.04-4.73-.14,1.1-.42,2.45-.27,3.91,.58l21.24,12.29c3.71,2.14,6.72,7.9,6.72,12.85v24.59c0,2.49-.76,4.3-1.99,5.22,1.7-.65,2.81-2.66,2.81-5.66v-24.59c0-4.95-3.01-10.7-6.72-12.85Z"/><path class="cls-3" d="M13.94,74.52v28.15l23.04,13.31v-28.15l-23.04-13.31Zm21.56,38.89l-20.08-11.6v-24.74l20.08,11.6v24.74Z"/><path class="cls-3" d="M31.91,92.83c0,1.84-1.3,2.59-2.91,1.66-1.61-.93-2.91-3.18-2.91-5.02s1.3-2.59,2.91-1.66c1.61,.93,2.91,3.17,2.91,5.02Z"/><polygon class="cls-3" points="14.71 95.19 20.71 87.44 26.8 102.85 31.23 99.25 36.12 112.54 36.02 113.88 14.8 102.53 14.71 95.19"/></g></g><g><g><path class="cls-25" d="M295.76,96.25c0,3.82-1.32,6.53-3.47,7.85-.06,.04-3.67,2.27-3.73,2.31-2.23,1.25-.8-1.58-4.2-3.54-6.82-3.94-12.35-13.48-12.35-21.31,0-3.87-3.58-3.9-1.39-5.2,.06-.04,4.09-2.34,4.15-2.37,2.23-1.21,5.27-.98,8.62,.95,6.82,3.94,12.35,13.48,12.35,21.31Z"/><path class="cls-3" d="M279.96,77.05c-3.27-1.89-6.24-2.14-8.45-1.04,2.06-.58,4.62-.15,7.39,1.45,6.82,3.94,12.35,13.48,12.35,21.31,0,4.08-1.5,6.88-3.9,8.08,3.02-.84,4.97-3.84,4.97-8.5,0-7.83-5.53-17.37-12.36-21.31Z"/><ellipse class="cls-12" cx="279.36" cy="91.52" rx="10.06" ry="17.42" transform="translate(-8 153.5) rotate(-30.31)"/></g><path class="cls-22" d="M277.15,86.44c0,1.1-.78,1.54-1.74,.99-.96-.55-1.74-1.89-1.74-2.99s.78-1.54,1.74-.99c.96,.55,1.74,1.89,1.74,2.99Z"/><path class="cls-22" d="M284.17,90.5c0,1.1-.78,1.54-1.74,.99-.96-.55-1.74-1.89-1.74-2.99s.78-1.54,1.74-.99c.96,.55,1.74,1.89,1.74,2.99Z"/><path class="cls-22" d="M272.37,90.98l1.62,.27c.75,2.84,2.74,5.61,4.97,6.89,2.16,1.25,4.14,.84,4.92-1.02l1.6,1.64c-1.04,2.47-3.66,3.01-6.52,1.36-2.95-1.7-5.6-5.38-6.59-9.14Z"/><path class="cls-19" d="M275.92,87.08c-.96-.55-1.74-1.89-1.74-2.99,0-.36,.09-.64,.23-.85-.45,.1-.74,.53-.74,1.2,0,1.1,.78,2.44,1.74,2.99,.65,.37,1.2,.28,1.5-.14-.28,.06-.62,0-1-.21Z"/><path class="cls-19" d="M282.95,91.13c-.96-.55-1.74-1.89-1.74-2.99,0-.36,.09-.64,.23-.85-.45,.1-.74,.53-.74,1.2,0,1.1,.78,2.44,1.74,2.99,.65,.37,1.2,.28,1.5-.14-.28,.06-.62,0-1-.21Z"/><g><path class="cls-19" d="M284.08,97.32l-.2-.2c-.18,.44-.44,.79-.74,1.06,.37-.2,.69-.48,.94-.86Z"/><path class="cls-19" d="M279.46,99.76c-2.83-1.63-5.38-5.08-6.46-8.68l-.64-.11c.99,3.76,3.64,7.44,6.59,9.14,2.16,1.25,4.17,1.24,5.48,.11-1.29,.75-3.08,.63-4.98-.47Z"/></g></g><g><g><polygon class="cls-11" points="289.69 219.05 289.69 287.22 295.8 283.65 295.8 215.32 289.69 219.05"/><polygon class="cls-23" points="289.71 219.05 289.71 287.22 156.42 210.79 156.42 142.45 289.71 219.05"/><polygon class="cls-7" points="156.42 142.45 289.71 219.05 295.8 215.32 162.46 138.78 156.42 142.45"/><polygon class="cls-5" points="156.42 142.45 289.71 219.05 295.8 215.32 289.7 218.2 156.42 142.45"/></g><ellipse class="cls-11" cx="260.7" cy="236.83" rx="17.03" ry="29.49" transform="translate(-83.89 163.95) rotate(-30.31)"/><path class="cls-17" d="M262.7,259.08c-11.55-6.67-20.92-22.82-20.92-36.08,0-4.95,1.3-8.79,3.54-11.32-3.44,2.29-5.54,6.79-5.54,13.07,0,13.26,9.36,29.41,20.92,36.08,7.24,4.18,13.62,3.64,17.38-.61-3.82,2.55-9.3,2.37-15.38-1.14Z"/><g><path class="cls-11" d="M201.99,179.89l-4.5-2.6v50.68l4.5,2.6v-50.68Zm6.48-2.54l-4.5-2.6v56.91l4.5,2.6v-56.91Zm6.67,11.45l-4.5-2.6v49.27l4.5,2.6v-49.27Zm-30.98,3.57v27.77l4.5,2.6v-27.77l-4.5-2.6Zm11.17-7.72l-4.5-2.6v41.89l4.5,2.6v-41.89Zm26.35,18.22l-4.5-2.6v39.01l4.5,2.6v-39.01Zm6.41,16.08l-4.5-2.6v26.67l4.5,2.6v-26.67Zm-46.1-31.4l-4.5-2.6v31.16l4.5,2.6v-31.16Zm-17.83,1.84v18.88l4.5,2.6v-18.88l-4.5-2.6Zm11.17-7.4l-4.5-2.6v32.69l4.5,2.6v-32.69Z"/><path class="cls-16" d="M201.99,199.79l-4.5-2.6v30.79l4.5,2.6v-30.79Zm6.48-14l-4.5-2.6v48.47l4.5,2.6v-48.47Zm6.67,12.01l-4.5-2.6v40.27l4.5,2.6v-40.27Zm-30.98,1.32v21.02l4.5,2.6v-21.02l-4.5-2.6Zm11.17-.82l-4.5-2.6v28.25l4.5,2.6v-28.25Zm-13.34-8.19l-4.5-2.6v28.61l4.5,2.6v-28.61Zm-17.83,12.7v5.47l4.5,2.6v-5.47l-4.5-2.6Zm11.17,.01l-4.5-2.6v11.86l4.5,2.6v-11.86Zm46.36,7.31l-4.5-2.6v31.75l4.5,2.6v-31.75Zm6.41,12.78l-4.5-2.6v22.71l4.5,2.6v-22.71Z"/><g><polygon class="cls-3" points="215.14 198.36 210.64 195.76 210.64 195.2 215.14 197.8 215.14 198.36"/><polygon class="cls-3" points="208.47 186.35 203.97 183.75 203.97 183.19 208.47 185.79 208.47 186.35"/><polygon class="cls-3" points="228.09 223.47 223.6 220.88 223.6 220.31 228.09 222.91 228.09 223.47"/><polygon class="cls-3" points="201.99 200.35 197.5 197.75 197.5 197.19 201.99 199.79 201.99 200.35"/><polygon class="cls-3" points="221.68 210.69 217.18 208.1 217.18 207.53 221.68 210.13 221.68 210.69"/><polygon class="cls-3" points="175.32 203.38 170.82 200.78 170.82 200.22 175.32 202.82 175.32 203.38"/><polygon class="cls-3" points="181.99 190.67 177.49 188.07 177.49 187.51 181.99 190.1 181.99 190.67"/><polygon class="cls-3" points="168.65 205.4 168.65 205.96 164.16 203.37 164.16 202.81 168.65 205.4"/><polygon class="cls-3" points="195.33 198.85 190.83 196.26 190.83 195.69 195.33 198.29 195.33 198.85"/><polygon class="cls-3" points="188.66 202.27 184.16 199.68 184.16 199.11 188.66 201.71 188.66 202.27"/></g></g><g><g><path class="cls-25" d="M240.12,227.96c.27-10.02,7.56-14,16.49-8.84,4.6,2.66,8.76,7.23,11.76,12.46l3.3-.83c-3.75-6.81-9.11-12.82-15.06-16.25-11.24-6.49-20.4-1.36-20.54,11.43l2.64,2.39,1.41-.35Z"/><path class="cls-25" d="M264.9,259.23c-2.44,.22-5.26-.46-8.28-2.2-8.46-4.89-15.45-16.27-16.4-26.24l-4.03-2.03c0,.07-1.35,.35-1.34,.42,1.17,12.41,11.24,26.39,21.77,32.47,3.83,2.21,6.42,3.37,9.49,3.04,.13-.01,1.25-.33,1.38-.35l-2.58-5.12Z"/><path class="cls-25" d="M269.94,234.6c2,4.29,3.2,8.83,3.2,13.01,0,5.99-2.44,9.92-6.23,11.21l2.55,5.06c4.69-1.61,7.71-6.51,7.71-13.94,0-5.18-1.47-10.83-3.95-16.16l-3.28,.82Z"/></g><path class="cls-25" d="M262.29,242.91c-1.11-.94-2.11-2.14-2.9-3.47-.48-.8-.46-1.67,0-1.94,.6-.35,1.13-.91,1.48-1.65,.51,.14,1.14-.05,1.14-.74s-.31-1.48-.73-1.87c-.12-3.04-1.16-6.16-4.66-8.18-1.22-.71-2.14-.93-2.83-.8-.16,.03-1.55,.4-1.68,.46-.95,.47-.08,1.49-.15,3.14-.42-.09-.73,.32-.73,1.03s.63,1.61,1.14,2.06c.35,1.14,.88,2.31,1.48,3.36,.47,.81,.48,1.7,0,1.95-.79,.41-1.79,.46-2.9,.12-.44-.13-.85-.15-1.21-.05-.1,.03-1.35,.35-1.44,.4-.65,.32,.09,.8,.09,1.9v3.13c0,.61,.43,1.35,.96,1.65l13.43,8.89c.23,.13,1.55-.33,1.72-.4,.21-.08,.35-.31,.35-.65v-3.13c0-1.81-1.09-3.95-2.56-5.2Z"/><g><path class="cls-3" d="M239.22,228.22c.27-10.02,7.56-14,16.49-8.84,4.6,2.66,8.76,7.23,11.76,12.46l3.3-.83c-3.75-6.81-9.11-12.82-15.06-16.25-11.24-6.49-20.4-1.36-20.54,11.43l4.05,2.04Z"/><path class="cls-3" d="M264,259.49c-2.44,.22-5.26-.46-8.28-2.2-8.46-4.89-15.45-16.27-16.4-26.24l-4.03-2.03c1.08,12.46,9.83,26.77,20.43,32.89,3.99,2.3,7.71,3.14,10.87,2.69l-2.58-5.12Z"/><path class="cls-3" d="M269.03,234.86c2,4.29,3.2,8.83,3.2,13.01,0,5.99-2.44,9.92-6.23,11.21l2.55,5.06c4.69-1.61,7.71-6.51,7.71-13.94,0-5.18-1.47-10.83-3.95-16.16l-3.28,.82Z"/></g><path class="cls-3" d="M261.39,243.17c-1.11-.94-2.11-2.14-2.9-3.47-.48-.8-.46-1.67,0-1.94,.6-.35,1.13-.91,1.48-1.65,.51,.14,1.14-.05,1.14-.74s-.31-1.48-.73-1.87c-.12-3.04-1.16-6.16-4.66-8.18-3.5-2.02-4.53-.09-4.66,2.8-.42-.09-.73,.32-.73,1.03s.63,1.61,1.14,2.06c.35,1.14,.88,2.31,1.48,3.36,.47,.81,.48,1.7,0,1.95-.79,.41-1.79,.46-2.9,.12-1.47-.44-2.56,.44-2.56,2.25v3.13c0,.61,.43,1.35,.96,1.65l14.54,8.39c.53,.31,.96,.06,.96-.55v-3.13c0-1.81-1.09-3.95-2.56-5.2Z"/><g><path class="cls-26" d="M238.71,228.35c.27-10.02,7.56-14,16.49-8.84,4.6,2.66,8.76,7.23,11.76,12.46l3.3-.83c-3.75-6.81-9.11-12.82-15.06-16.25-11.24-6.49-20.4-1.36-20.54,11.43l4.05,2.04Z"/><path class="cls-26" d="M263.48,259.62c-2.44,.22-5.26-.46-8.28-2.2-8.46-4.89-15.45-16.27-16.4-26.24l-4.03-2.03c1.08,12.46,9.83,26.77,20.43,32.89,3.99,2.3,7.71,3.14,10.87,2.69l-2.58-5.12Z"/><path class="cls-26" d="M268.52,234.99c2,4.29,3.2,8.83,3.2,13.01,0,5.99-2.44,9.92-6.23,11.21l2.55,5.06c4.69-1.61,7.71-6.51,7.71-13.94,0-5.18-1.47-10.83-3.95-16.16l-3.28,.82Z"/></g><path class="cls-26" d="M260.87,243.3c-1.11-.94-2.11-2.14-2.9-3.47-.48-.8-.46-1.67,0-1.94,.6-.35,1.13-.91,1.48-1.65,.51,.14,1.14-.05,1.14-.74s-.31-1.48-.73-1.87c-.12-3.04-1.16-6.16-4.66-8.18-3.5-2.02-4.53-.09-4.66,2.8-.42-.09-.73,.32-.73,1.03s.63,1.61,1.14,2.06c.35,1.14,.88,2.31,1.48,3.36,.47,.81,.48,1.7,0,1.95-.79,.41-1.79,.46-2.9,.12-1.47-.44-2.56,.44-2.56,2.25v3.13c0,.61,.43,1.35,.96,1.65l14.54,8.39c.53,.31,.96,.06,.96-.55v-3.13c0-1.81-1.09-3.95-2.56-5.2Z"/></g></g><g><g><polygon class="cls-15" points="157.16 201.92 157.16 230.47 161.94 227.84 161.94 199.13 157.16 201.92"/><polygon class="cls-14" points="157.18 201.92 157.18 230.47 51.54 169.48 51.54 140.77 157.18 201.92"/><polygon class="cls-1" points="51.54 140.77 157.18 201.92 161.94 199.13 56.26 138.04 51.54 140.77"/><polygon class="cls-5" points="51.54 140.77 157.18 201.92 161.94 199.13 157.28 201.17 51.54 140.77"/></g><polygon class="cls-3" points="151.81 221.82 56.75 166.34 56.75 149.52 151.81 205 151.81 221.82"/><g><path class="cls-17" d="M60.73,154.28l1.92,1.11,.89,9.18,.04,.02,.94-8.12,2.18,1.26,.94,9.21,.04,.02,.89-8.16,1.72,.99-1.29,11.3-2.48-1.43-.91-7.82-.04-.02-.91,6.77-2.65-1.53-1.29-12.78Z"/><path class="cls-17" d="M72.11,160.89l1.92,1.11,.89,9.18,.04,.02,.94-8.12,2.18,1.26,.94,9.21,.04,.02,.89-8.16,1.72,.99-1.29,11.3-2.48-1.43-.91-7.82-.04-.02-.91,6.77-2.65-1.53-1.29-12.78Z"/><path class="cls-17" d="M83.58,167.42l1.92,1.11,.89,9.18,.04,.02,.94-8.12,2.18,1.26,.94,9.21,.04,.02,.89-8.16,1.72,.99-1.29,11.3-2.48-1.43-.91-7.82-.04-.02-.91,6.77-2.65-1.53-1.29-12.78Z"/></g></g><g><g><polygon class="cls-25" points="99.5 55 99.5 74.91 102.5 73.25 102.5 53.19 99.5 55"/><polygon class="cls-12" points="99.52 55 99.52 74.91 81.8 64.67 81.8 44.61 99.52 55"/><polygon class="cls-26" points="81.8 44.61 99.52 55 102.5 53.19 84.74 42.85 81.8 44.61"/><polygon class="cls-3" points="81.8 44.61 99.52 55 102.5 53.19 99.37 54.04 81.8 44.61"/></g><g><polygon class="cls-10" points="115.08 48.36 115.08 80.6 119.94 77.92 119.94 45.43 115.08 48.36"/><polygon class="cls-13" points="86.42 31.53 115.12 48.36 119.94 45.43 91.18 28.69 86.42 31.53"/><polygon class="cls-5" points="86.42 31.53 115.12 48.36 119.94 45.43 115.25 47.67 86.42 31.53"/></g><polygon class="cls-21" points="86.42 31.53 86.42 44.9 101.61 53.81 101.61 72.79 115.12 80.6 115.12 48.36 86.42 31.53"/></g><g><g><polygon class="cls-15" points="176.42 126.2 176.42 148.46 179.78 146.61 179.78 124.18 176.42 126.2"/><polygon class="cls-14" points="176.44 126.2 176.44 148.46 156.63 137.01 156.63 114.58 176.44 126.2"/><polygon class="cls-1" points="156.63 114.58 176.44 126.2 179.78 124.18 159.92 112.62 156.63 114.58"/><polygon class="cls-5" points="156.63 114.58 176.44 126.2 179.78 124.18 176.28 125.13 156.63 114.58"/></g><g><polygon class="cls-15" points="202.42 141.2 202.42 163.46 205.78 161.61 205.78 139.18 202.42 141.2"/><polygon class="cls-14" points="202.44 141.2 202.44 163.46 182.63 152.01 182.63 129.58 202.44 141.2"/><polygon class="cls-1" points="182.63 129.58 202.44 141.2 205.78 139.18 185.92 127.62 182.63 129.58"/><polygon class="cls-5" points="182.63 129.58 202.44 141.2 205.78 139.18 202.28 140.13 182.63 129.58"/></g><g><polygon class="cls-15" points="228.25 156.03 228.25 178.29 231.61 176.44 231.61 154.01 228.25 156.03"/><polygon class="cls-14" points="228.28 156.03 228.28 178.29 208.47 166.84 208.47 144.42 228.28 156.03"/><polygon class="cls-1" points="208.47 144.42 228.28 156.03 231.61 154.01 211.75 142.45 208.47 144.42"/><polygon class="cls-5" points="208.47 144.42 228.28 156.03 231.61 154.01 228.11 154.96 208.47 144.42"/></g><g><polygon class="cls-15" points="253.75 170.53 253.75 192.79 257.11 190.94 257.11 168.51 253.75 170.53"/><polygon class="cls-14" points="253.78 170.53 253.78 192.79 233.97 181.34 233.97 158.92 253.78 170.53"/><polygon class="cls-1" points="233.97 158.92 253.78 170.53 257.11 168.51 237.25 156.95 233.97 158.92"/><polygon class="cls-5" points="233.97 158.92 253.78 170.53 257.11 168.51 253.61 169.46 233.97 158.92"/></g><path class="cls-3" d="M222.32,165.46c-.7-.6-1.33-1.36-1.83-2.19-.3-.51-.29-1.06,0-1.23,.38-.22,.72-.58,.94-1.04,.32,.09,.72-.03,.72-.47s-.2-.94-.46-1.19c-.08-1.92-.74-3.9-2.95-5.18-2.21-1.28-2.87-.06-2.95,1.77-.27-.06-.46,.2-.46,.65s.4,1.02,.72,1.3c.22,.72,.55,1.46,.94,2.12,.29,.51,.31,1.07,0,1.23-.5,.26-1.13,.29-1.83,.08-.93-.28-1.62,.28-1.62,1.42v1.98c0,.38,.27,.85,.61,1.05l9.2,5.31c.33,.19,.61,.04,.61-.35v-1.98c0-1.14-.69-2.5-1.62-3.29Z"/><path class="cls-3" d="M237.55,179.78l3.21,1.85v-5.76l-3.21-1.85v5.76Zm5.08,2.94l3.21,1.85v-10.56l-3.21-1.85v10.56Zm5.08-12.42v15.35l3.21,1.85v-15.35l-3.21-1.85Z"/><path class="cls-3" d="M197.71,149.77c0-.3-.03-.6-.06-.91l1.52-.19c-.15-.76-.39-1.54-.69-2.3l-1.73-.52c-.3-.65-.66-1.27-1.08-1.86l.41-1.74c-.51-.64-1.07-1.23-1.66-1.74l-.93,1.2c-.25-.19-.5-.36-.76-.51-.26-.15-.51-.27-.76-.37l-.93-2.28c-.59-.16-1.14-.21-1.66-.17l.41,2.22c-.41,.11-.77,.32-1.08,.61l-1.73-1.47c-.3,.41-.53,.92-.69,1.5l1.52,1.94c-.04,.26-.06,.54-.06,.84s.03,.6,.06,.91l-1.52,.19c.15,.76,.39,1.54,.69,2.3l1.73,.52c.3,.65,.66,1.27,1.08,1.86l-.41,1.74c.51,.64,1.07,1.23,1.66,1.74l.93-1.2c.25,.19,.5,.36,.76,.51,.26,.15,.51,.27,.76,.37l.93,2.28c.59,.16,1.14,.21,1.66,.17l-.41-2.22c.41-.11,.77-.32,1.08-.61l1.73,1.47c.3-.41,.53-.92,.69-1.5l-1.52-1.94c.04-.26,.06-.54,.06-.84Zm-4.97-.58c-1.1-.64-2-2.18-2-3.44s.89-1.78,2-1.14,2,2.18,2,3.44-.89,1.78-2,1.14Z"/><g><path class="cls-3" d="M160.3,123.43l6.38,9.96,6.38-2.6s0,0,0,0c-.21-.31-.47-.57-.76-.74l-11.25-6.5c-.29-.17-.55-.2-.76-.14,0,0,0,0,0,0Z"/><path class="cls-3" d="M173.08,130.83l-6.4,3.65-1.81-3.12-4.57,1.86s-.01-.02-.02-.03l4.25-2.42-4.25-7.32c-.29,.1-.48,.39-.48,.84v7.62c0,.79,.56,1.76,1.25,2.16l11.25,6.5c.69,.4,1.25,.08,1.25-.71v-7.62c0-.46-.19-.97-.48-1.4Zm-.02,9.75l-4.57-7.13,.34-.19,4.25,7.32s-.01,0-.02,0Z"/></g></g><g><g><polygon class="cls-11" points="76.64 191.27 76.64 219.82 81.15 217.26 81.15 188.55 76.64 191.27"/><polygon class="cls-23" points="76.67 191.27 76.67 219.82 0 175.57 0 146.87 76.67 191.27"/><polygon class="cls-7" points="0 146.87 76.67 191.27 81.15 188.55 4.44 144.2 0 146.87"/><polygon class="cls-5" points="0 146.87 76.67 191.27 81.15 188.55 76.48 190.43 0 146.87"/></g><path class="cls-3" d="M29.63,168.69l-14.02-8.09c-.86-.5-1.56-.1-1.56,.89v9.49c0,.99,.7,2.19,1.56,2.69l8.76,5.06,4.38,7.55v-5.03l.88,.51c.86,.5,1.56,.1,1.56-.89v-9.49c0-.99-.7-2.19-1.56-2.69Zm-9.88,1.78c-.46,.26-1.2-.17-1.65-.95-.46-.79-.46-1.64,0-1.9,.46-.26,1.2,.17,1.65,.95s.46,1.64,0,1.9Zm3.8,2.19c-.46,.26-1.2-.17-1.65-.95-.46-.79-.46-1.64,0-1.9,.46-.26,1.2,.17,1.65,.95s.46,1.64,0,1.9Zm3.8,2.19c-.46,.26-1.2-.17-1.65-.95-.46-.79-.46-1.64,0-1.9,.46-.26,1.2,.17,1.65,.95s.46,1.64,0,1.9Zm-14.45-4.55v-7.71l-5.35-3.09c-.86-.5-1.56-.1-1.56,.89v9.49c0,.99,.7,2.19,1.56,2.69l.88,.51v5.03l4.38-2.5,8.76,5.06c.86,.5,1.56,.1,1.56-.89v-.45l-7.49-4.33c-1.5-.87-2.73-2.98-2.73-4.7Z"/><polygon class="cls-3" points="34.37 173.46 34.37 175.83 71 196.98 71 194.61 34.37 173.46"/><polygon class="cls-3" points="59.42 197.79 34.37 183.31 34.37 185.68 59.42 200.16 59.42 197.79"/><polygon class="cls-3" points="34.37 180.76 71 201.91 71 199.54 34.37 178.39 34.37 180.76"/></g><g><path class="cls-24" d="M127.73,250.95l-23.81-13.37c2.06-1.51,3.26-3.3,3.26-5.23,0-5.33-9.09-9.64-20.3-9.64s-20.3,4.32-20.3,9.64,9.09,9.64,20.3,9.64c2.34,0,4.57-.2,6.66-.54l25.64,14.4c1.66,.96,4.55,.84,6.46-.27,2.12-1.08,4.63-3.13,2.09-4.63Z"/><g><g><path class="cls-9" d="M127.65,248.32c1.43,2.65,.44,5.95-2.21,7.38-2.65,1.43-5.95,.44-7.38-2.21s-.44-5.95,2.21-7.38c2.65-1.43,5.95-.44,7.38,2.21Z"/><path class="cls-17" d="M110.41,214.06l-11.8,6.36,17.6,32.46h0s.01,.03,.02,.05c1.02,1.9,4.49,2.01,7.75,.26,3.26-1.76,5.07-4.72,4.05-6.61,0-.02-.02-.03-.03-.05h0s-17.6-32.47-17.6-32.47Z"/><path class="cls-11" d="M110.42,214.08c1.02,1.9-.79,4.86-4.05,6.61-3.26,1.76-6.73,1.64-7.75-.26-1.02-1.9,.79-4.86,4.05-6.61,3.26-1.76,6.73-1.64,7.75,.26Z"/><path class="cls-9" d="M102.68,205.45l-7.02,3.78,4.99,9.26h0s0,.02,.01,.03c.61,1.13,2.67,1.2,4.61,.15,1.94-1.04,3.02-2.81,2.41-3.93,0,0-.01-.02-.02-.03h0s-4.99-9.26-4.99-9.26Z"/></g><path class="cls-7" d="M82.87,131.01c-8.74-5.04-16.66-5.62-22.46-2.48-.16,.09-8.48,4.73-8.74,5.13,5.9-4.45,14.63-4.38,24.38,1.24,17.77,10.26,32.17,35.1,32.17,55.49,0,10.4-3.75,17.63-9.78,20.86,.43-.12,.94-.34,1.57-.69,.17-.1,5.84-3.53,6.01-3.64,5.59-3.41,9.02-10.47,9.02-20.43,0-20.39-14.4-45.23-32.17-55.49Z"/><path class="cls-2" d="M76.05,134.91c-17.77-10.26-32.17-2.05-32.17,18.34s14.4,45.23,32.17,55.49c17.77,10.26,32.17,2.05,32.17-18.34s-14.4-45.23-32.17-55.49Zm-.48,68.96c-15.08-8.7-27.3-29.79-27.3-47.09s12.22-24.27,27.3-15.56c15.08,8.7,27.3,29.79,27.3,47.09s-12.22,24.27-27.3,15.56Z"/><path class="cls-7" d="M81.22,200.71c-15.08-8.7-27.3-29.79-27.3-47.09,0-7.06,2.03-12.39,5.47-15.65-6.74,1.81-11.12,8.46-11.12,18.81,0,17.3,12.22,38.38,27.3,47.09,8.93,5.15,16.85,4.81,21.83,.09-4.53,1.22-10.12,.25-16.18-3.24Z"/><path class="cls-4" d="M77.59,134.13c-8.52-4.92-16.25-5.58-22.01-2.7,5.36-1.5,13.26-.69,20.47,3.47,17.77,10.26,32.17,35.1,32.17,55.49,0,10.61-5.14,18.23-11.4,21.35,7.85-2.2,12.94-10.01,12.94-22.12,0-20.39-14.4-45.23-32.17-55.49Z"/></g></g></g></g></svg>